<svg width="280" height="46" viewBox="0 0 280 46" fill="none" xmlns="http://www.w3.org/2000/svg">
<g clip-path="url(#clip0_0_1)">
<path d="M63.4034 8.63636H68.6591L81.017 38.821H81.4432L93.8011 8.63636H99.0568V45H94.9375V17.3722H94.5824L83.2188 45H79.2415L67.8778 17.3722H67.5227V45H63.4034V8.63636ZM115.343 45.6392C113.615 45.6392 112.047 45.3137 110.638 44.6626C109.229 43.9998 108.111 43.0469 107.282 41.804C106.454 40.5492 106.039 39.0341 106.039 37.2585C106.039 35.696 106.347 34.4295 106.963 33.4588C107.578 32.4763 108.401 31.7069 109.431 31.1506C110.46 30.5942 111.597 30.1799 112.84 29.9077C114.094 29.6236 115.355 29.3987 116.622 29.233C118.279 29.0199 119.622 28.8601 120.652 28.7536C121.694 28.6352 122.451 28.4399 122.925 28.1676C123.41 27.8954 123.653 27.4219 123.653 26.7472V26.6051C123.653 24.8532 123.173 23.492 122.215 22.5213C121.268 21.5507 119.829 21.0653 117.9 21.0653C115.9 21.0653 114.331 21.5033 113.195 22.3793C112.058 23.2552 111.259 24.1903 110.798 25.1847L106.82 23.7642C107.531 22.107 108.478 20.8168 109.661 19.8935C110.857 18.9583 112.159 18.3073 113.568 17.9403C114.988 17.5616 116.385 17.3722 117.758 17.3722C118.634 17.3722 119.64 17.4787 120.776 17.6918C121.925 17.893 123.031 18.3132 124.097 18.9524C125.174 19.5916 126.068 20.5563 126.778 21.8466C127.488 23.1368 127.843 24.8651 127.843 27.0312V45H123.653V41.3068H123.44C123.156 41.8987 122.682 42.532 122.019 43.2067C121.356 43.8814 120.475 44.4555 119.374 44.929C118.273 45.4025 116.929 45.6392 115.343 45.6392ZM115.982 41.875C117.64 41.875 119.036 41.5495 120.173 40.8984C121.321 40.2474 122.185 39.407 122.765 38.3771C123.357 37.3473 123.653 36.2642 123.653 35.1278V31.2926C123.475 31.5057 123.085 31.701 122.481 31.8786C121.889 32.0443 121.203 32.1922 120.421 32.3224C119.652 32.4408 118.9 32.5473 118.166 32.642C117.444 32.7249 116.858 32.7959 116.409 32.8551C115.32 32.9972 114.302 33.228 113.355 33.5476C112.419 33.8554 111.662 34.3229 111.082 34.9503C110.514 35.5658 110.23 36.4062 110.23 37.4716C110.23 38.9276 110.768 40.0284 111.845 40.7741C112.934 41.508 114.313 41.875 115.982 41.875ZM145.79 45.5682C143.517 45.5682 141.511 44.9941 139.771 43.8459C138.031 42.6858 136.669 41.0523 135.687 38.9453C134.704 36.8265 134.213 34.3229 134.213 31.4347C134.213 28.5701 134.704 26.0843 135.687 23.9773C136.669 21.8703 138.036 20.2427 139.788 19.0945C141.54 17.9463 143.564 17.3722 145.861 17.3722C147.636 17.3722 149.039 17.6681 150.069 18.2599C151.111 18.84 151.904 19.5028 152.448 20.2486C153.004 20.9825 153.437 21.5862 153.744 22.0597H154.099V8.63636H158.29V45H154.241V40.8097H153.744C153.437 41.3068 152.999 41.9342 152.43 42.6918C151.862 43.4375 151.051 44.1063 149.998 44.6982C148.944 45.2782 147.542 45.5682 145.79 45.5682ZM146.358 41.804C148.039 41.804 149.459 41.366 150.619 40.4901C151.779 39.6023 152.661 38.3771 153.265 36.8146C153.869 35.2403 154.17 33.4233 154.17 31.3636C154.17 29.3277 153.875 27.5462 153.283 26.0192C152.691 24.4804 151.815 23.2848 150.655 22.4325C149.495 21.5684 148.063 21.1364 146.358 21.1364C144.582 21.1364 143.103 21.5921 141.919 22.5036C140.747 23.4032 139.865 24.6283 139.273 26.179C138.693 27.7178 138.403 29.446 138.403 31.3636C138.403 33.3049 138.699 35.0687 139.291 36.6548C139.895 38.2292 140.783 39.4839 141.955 40.419C143.138 41.3423 144.606 41.804 146.358 41.804ZM177.626 45.5682C175.164 45.5682 173.003 44.9822 171.145 43.8104C169.298 42.6385 167.854 40.9991 166.812 38.892C165.783 36.785 165.268 34.3229 165.268 31.5057C165.268 28.6648 165.783 26.1849 166.812 24.0661C167.854 21.9472 169.298 20.3018 171.145 19.13C173.003 17.9581 175.164 17.3722 177.626 17.3722C180.088 17.3722 182.242 17.9581 184.089 19.13C185.947 20.3018 187.391 21.9472 188.421 24.0661C189.463 26.1849 189.984 28.6648 189.984 31.5057C189.984 34.3229 189.463 36.785 188.421 38.892C187.391 40.9991 185.947 42.6385 184.089 43.8104C182.242 44.9822 180.088 45.5682 177.626 45.5682ZM177.626 41.804C179.496 41.804 181.035 41.3246 182.242 40.3658C183.45 39.407 184.343 38.1463 184.923 36.5838C185.503 35.0213 185.793 33.3286 185.793 31.5057C185.793 29.6828 185.503 27.9841 184.923 26.4098C184.343 24.8355 183.45 23.563 182.242 22.5923C181.035 21.6217 179.496 21.1364 177.626 21.1364C175.755 21.1364 174.217 21.6217 173.009 22.5923C171.802 23.563 170.908 24.8355 170.328 26.4098C169.748 27.9841 169.458 29.6828 169.458 31.5057C169.458 33.3286 169.748 35.0213 170.328 36.5838C170.908 38.1463 171.802 39.407 173.009 40.3658C174.217 41.3246 175.755 41.804 177.626 41.804ZM200.57 28.5938V45H196.38V17.7273H200.428V21.9886H200.784C201.423 20.6037 202.393 19.491 203.695 18.6506C204.998 17.7983 206.678 17.3722 208.738 17.3722C210.585 17.3722 212.2 17.7509 213.585 18.5085C214.97 19.2543 216.048 20.3906 216.817 21.9176C217.586 23.4328 217.971 25.3504 217.971 27.6705V45H213.781V27.9545C213.781 25.812 213.224 24.143 212.112 22.9474C210.999 21.7401 209.472 21.1364 207.531 21.1364C206.193 21.1364 204.998 21.4264 203.944 22.0064C202.902 22.5864 202.08 23.4328 201.476 24.5455C200.872 25.6581 200.57 27.0076 200.57 28.5938ZM226.196 45V8.63636H238.483C241.324 8.63636 243.656 9.12168 245.479 10.0923C247.302 11.0511 248.651 12.371 249.527 14.0518C250.403 15.7327 250.841 17.6444 250.841 19.7869C250.841 21.9295 250.403 23.8293 249.527 25.4865C248.651 27.1437 247.308 28.4458 245.497 29.3928C243.686 30.3279 241.372 30.7955 238.554 30.7955H228.611V26.8182H238.412C240.354 26.8182 241.916 26.5341 243.1 25.9659C244.295 25.3977 245.159 24.5928 245.692 23.5511C246.237 22.4976 246.509 21.2429 246.509 19.7869C246.509 18.331 246.237 17.0585 245.692 15.9695C245.148 14.8804 244.278 14.04 243.082 13.4482C241.886 12.8445 240.306 12.5426 238.341 12.5426H230.6V45H226.196ZM243.313 28.6648L252.262 45H247.148L238.341 28.6648H243.313ZM258.179 45V8.63636H280.125V12.5426H262.582V24.8295H278.988V28.7358H262.582V41.0938H280.409V45H258.179Z" fill="white"/>
<line x1="226" y1="1.5" x2="280" y2="1.5" stroke="white" stroke-width="3"/>
<line x1="-4.17157" y1="10.1716" x2="57.9066" y2="72.2497" stroke="white" stroke-width="8"/>
<line x1="-14.1716" y1="20.1716" x2="42.9686" y2="77.3118" stroke="#FF0011" stroke-width="8"/>
<line x1="-0.171573" y1="-5.82843" x2="80.884" y2="75.2271" stroke="#FFF168" stroke-width="8"/>
</g>
<defs>
<clipPath id="clip0_0_1">
<rect width="280" height="46" fill="white"/>
</clipPath>
</defs>
</svg>
